<mxfile host="app.diagrams.net" modified="2023-12-25T23:08:32.898Z" agent="Mozilla/5.0 (Macintosh; Intel Mac OS X 10.15; rv:120.0) Gecko/20100101 Firefox/120.0" etag="wO-VuJIkTDilJt8JX9Z8" version="22.1.11" type="device">
  <diagram name="Page-1" id="Wtr7Vjakz72rIiDd2Xvm">
    <mxGraphModel dx="925" dy="530" grid="1" gridSize="10" guides="1" tooltips="1" connect="1" arrows="1" fold="1" page="1" pageScale="1" pageWidth="850" pageHeight="1100" math="0" shadow="0">
      <root>
        <mxCell id="0" />
        <mxCell id="1" parent="0" />
      </root>
    </mxGraphModel>
  </diagram>
</mxfile>
